ffmpeg version 3.4.8-0ubuntu0.2 Copyright (c) 2000-2020 the FFmpeg developers
  built with gcc 7 (Ubuntu 7.5.0-3ubuntu1~18.04)
  configuration: --prefix=/usr --extra-version=0ubuntu0.2 --toolchain=hardened --libdir=/usr/lib/x86_64-linux-gnu --incdir=/usr/include/x86_64-linux-gnu --enable-gpl --disable-stripping --enable-avresample --enable-avisynth --enable-gnutls --enable-ladspa --enable-libass --enable-libbluray --enable-libbs2b --enable-libcaca --enable-libcdio --enable-libflite --enable-libfontconfig --enable-libfreetype --enable-libfribidi --enable-libgme --enable-libgsm --enable-libmp3lame --enable-libmysofa --enable-libopenjpeg --enable-libopenmpt --enable-libopus --enable-libpulse --enable-librubberband --enable-librsvg --enable-libshine --enable-libsnappy --enable-libsoxr --enable-libspeex --enable-libssh --enable-libtheora --enable-libtwolame --enable-libvorbis --enable-libvpx --enable-libwavpack --enable-libwebp --enable-libx265 --enable-libxml2 --enable-libxvid --enable-libzmq --enable-libzvbi --enable-omx --enable-openal --enable-opengl --enable-sdl2 --enable-libdc1394 --enable-libdrm --enable-libiec61883 --enable-chromaprint --enable-frei0r --enable-libopencv --enable-libx264 --enable-shared
  libavutil      55. 78.100 / 55. 78.100
  libavcodec     57.107.100 / 57.107.100
  libavformat    57. 83.100 / 57. 83.100
  libavdevice    57. 10.100 / 57. 10.100
  libavfilter     6.107.100 /  6.107.100
  libavresample   3.  7.  0 /  3.  7.  0
  libswscale      4.  8.100 /  4.  8.100
  libswresample   2.  9.100 /  2.  9.100
  libpostproc    54.  7.100 / 54.  7.100
[rawvideo @ 0x558d313f1a20] Estimating duration from bitrate, this may be inaccurate
Input #0, rawvideo, from '../../SVC-Encoder-20220109T061506Z-001/SVC-Encoder/Dataset/RollerCoaster/6f_2x2/tile_yuv/f0_t3_480x480.yuv':
  Duration: 00:00:10.00, start: 0.000000, bitrate: 82944 kb/s
    Stream #0:0: Video: rawvideo (I420 / 0x30323449), yuv420p, 480x480, 82944 kb/s, 30 tbr, 30 tbn, 30 tbc
Stream mapping:
  Stream #0:0 -> #0:0 (rawvideo (native) -> h264 (libx264))
Press [q] to stop, [?] for help
[libx264 @ 0x558d313fec60] using cpu capabilities: MMX2 SSE2Fast LZCNT SSSE3 SSE4.2 AVX
[libx264 @ 0x558d313fec60] profile High, level 3.0
Output #0, rawvideo, to 'RollerCoaster_f0_t3_480x480_x264_QP_36.h264':
  Metadata:
    encoder         : Lavf57.83.100
    Stream #0:0: Video: h264 (libx264), yuv420p, 480x480, q=-1--1, 30 fps, 30 tbn, 30 tbc
    Metadata:
      encoder         : Lavc57.107.100 libx264
    Side data:
      cpb: bitrate max/min/avg: 0/0/0 buffer size: 0 vbv_delay: -1
frame=  107 fps=0.0 q=42.0 PSNR=Y:nan U:nan V:nan *:nan size=      59kB time=00:00:02.13 bitrate= 227.7kbits/s speed=4.17x    frame=  146 fps=142 q=42.0 PSNR=Y:nan U:nan V:nan *:nan size=      94kB time=00:00:03.43 bitrate= 224.5kbits/s speed=3.34x    frame=  188 fps=123 q=42.0 PSNR=Y:nan U:nan V:nan *:nan size=     127kB time=00:00:04.83 bitrate= 215.7kbits/s speed=3.16x    frame=  256 fps=126 q=42.0 PSNR=Y:nan U:nan V:nan *:nan size=     185kB time=00:00:07.10 bitrate= 213.7kbits/s speed=3.49x    frame=  300 fps=118 q=42.0 LPSNR=Y:inf U:inf V:inf *:inf size=     261kB time=00:00:09.93 bitrate= 215.5kbits/s speed= 3.9x    
video:261kB audio:0kB subtitle:0kB other streams:0kB global headers:0kB muxing overhead: 0.000000%
[libx264 @ 0x558d313fec60] frame I:2     Avg QP:35.69  size:  8273  PSNR Mean Y:34.29 U:39.58 V:42.71 Avg:35.60 Global:35.58
[libx264 @ 0x558d313fec60] frame P:76    Avg QP:37.18  size:  1894  PSNR Mean Y:32.87 U:39.56 V:42.61 Avg:34.30 Global:34.28
[libx264 @ 0x558d313fec60] frame B:222   Avg QP:41.49  size:   482  PSNR Mean Y:32.57 U:39.58 V:42.64 Avg:34.01 Global:34.01
[libx264 @ 0x558d313fec60] consecutive B-frames:  1.0%  0.0%  3.0% 96.0%
[libx264 @ 0x558d313fec60] mb I  I16..4: 18.1% 59.4% 22.5%
[libx264 @ 0x558d313fec60] mb P  I16..4:  3.6%  5.4%  0.3%  P16..4: 37.1% 10.9%  2.2%  0.0%  0.0%    skip:40.6%
[libx264 @ 0x558d313fec60] mb B  I16..4:  0.2%  0.2%  0.0%  B16..8: 28.3%  2.6%  0.1%  direct: 0.1%  skip:68.7%  L0:37.8% L1:60.7% BI: 1.4%
[libx264 @ 0x558d313fec60] 8x8 transform intra:57.2% inter:84.2%
[libx264 @ 0x558d313fec60] coded y,uvDC,uvAC intra: 23.2% 42.8% 8.2% inter: 3.1% 3.8% 0.0%
[libx264 @ 0x558d313fec60] i16 v,h,dc,p: 14% 48% 16% 22%
[libx264 @ 0x558d313fec60] i8 v,h,dc,ddl,ddr,vr,hd,vl,hu:  8% 21% 37%  1% 13% 11%  7%  1%  3%
[libx264 @ 0x558d313fec60] i4 v,h,dc,ddl,ddr,vr,hd,vl,hu: 16% 21% 15%  1% 21% 14%  7%  2%  2%
[libx264 @ 0x558d313fec60] i8c dc,h,v,p: 60% 25%  9%  6%
[libx264 @ 0x558d313fec60] Weighted P-Frames: Y:1.3% UV:0.0%
[libx264 @ 0x558d313fec60] ref P L0: 64.0% 13.2% 16.3%  6.4%  0.1%
[libx264 @ 0x558d313fec60] ref B L0: 90.4%  8.0%  1.6%
[libx264 @ 0x558d313fec60] ref B L1: 93.4%  6.6%
[libx264 @ 0x558d313fec60] PSNR Mean Y:32.654 U:39.577 V:42.631 Avg:34.097 Global:34.084 kb/s:214.06
